<svg xmlns="http://www.w3.org/2000/svg" xmlns:xlink="http://www.w3.org/1999/xlink" zoomAndPan="magnify" preserveAspectRatio="xMidYMid meet" version="1.0" viewBox="-37.5 -37.5 450 450"><defs><clipPath id="496f97e3ab"><path d="M 28 27 L 340 27 L 340 334 L 28 334 Z M 28 27 " clip-rule="nonzero"/></clipPath><clipPath id="7b97be43b7"><path d="M 16.957031 36.453125 L 327.800781 17.640625 L 346.179688 321.339844 L 35.335938 340.152344 Z M 16.957031 36.453125 " clip-rule="nonzero"/></clipPath><clipPath id="16b0ee374f"><path d="M 172.277344 27.050781 L 218.152344 98.179688 L 300.730469 79.324219 L 273.25 159.511719 L 339.402344 212.667969 L 259.714844 241.160156 L 259.621094 325.464844 L 187.664062 281.320312 L 121.558594 333.820312 L 111.296875 250.144531 L 28.757812 231.464844 L 88.015625 170.71875 L 51.066406 94.433594 L 135.316406 103.191406 Z M 172.277344 27.050781 " clip-rule="nonzero"/></clipPath><clipPath id="780bcdf2ae"><path d="M 0.558594 0.0390625 L 311.601562 0.0390625 L 311.601562 307 L 0.558594 307 Z M 0.558594 0.0390625 " clip-rule="nonzero"/></clipPath><clipPath id="d7ec4cdc08"><path d="M -11.042969 9.453125 L 299.800781 -9.359375 L 318.179688 294.339844 L 7.335938 313.152344 Z M -11.042969 9.453125 " clip-rule="nonzero"/></clipPath><clipPath id="8956d43afc"><path d="M 144.277344 0.0507812 L 190.152344 71.179688 L 272.730469 52.324219 L 245.25 132.511719 L 311.402344 185.667969 L 231.714844 214.160156 L 231.621094 298.464844 L 159.664062 254.320312 L 93.558594 306.820312 L 83.296875 223.144531 L 0.757812 204.464844 L 60.015625 143.71875 L 23.066406 67.433594 L 107.316406 76.191406 Z M 144.277344 0.0507812 " clip-rule="nonzero"/></clipPath><clipPath id="616be28766"><rect x="0" width="312" y="0" height="307"/></clipPath><clipPath id="9ecdc36d1d"><path d="M 76 74 L 291 74 L 291 286 L 76 286 Z M 76 74 " clip-rule="nonzero"/></clipPath><clipPath id="a7cf888294"><path d="M 68.085938 80.902344 L 282.339844 67.9375 L 295.011719 277.269531 L 80.753906 290.234375 Z M 68.085938 80.902344 " clip-rule="nonzero"/></clipPath><clipPath id="a287a30526"><path d="M 175.144531 74.421875 L 206.765625 123.449219 L 263.683594 110.453125 L 244.742188 165.722656 L 290.335938 202.363281 L 235.414062 222.003906 L 235.347656 280.109375 L 185.75 249.683594 L 140.183594 285.871094 L 133.113281 228.195312 L 76.21875 215.320312 L 117.0625 173.449219 L 91.59375 120.867188 L 149.664062 126.90625 Z M 175.144531 74.421875 " clip-rule="nonzero"/></clipPath><clipPath id="ef5f43a12c"><path d="M 0.078125 0.320312 L 214.398438 0.320312 L 214.398438 212 L 0.078125 212 Z M 0.078125 0.320312 " clip-rule="nonzero"/></clipPath><clipPath id="9c9a1f7a93"><path d="M -7.914062 6.902344 L 206.339844 -6.0625 L 219.011719 203.269531 L 4.753906 216.234375 Z M -7.914062 6.902344 " clip-rule="nonzero"/></clipPath><clipPath id="d5c710e03d"><path d="M 99.144531 0.421875 L 130.765625 49.449219 L 187.683594 36.453125 L 168.742188 91.722656 L 214.335938 128.363281 L 159.414062 148.003906 L 159.347656 206.109375 L 109.75 175.683594 L 64.183594 211.871094 L 57.113281 154.195312 L 0.21875 141.320312 L 41.0625 99.449219 L 15.59375 46.867188 L 73.664062 52.90625 Z M 99.144531 0.421875 " clip-rule="nonzero"/></clipPath><clipPath id="7d71da27a7"><rect x="0" width="215" y="0" height="212"/></clipPath><clipPath id="b74e042cf8"><rect x="0" width="363" y="0" height="359"/></clipPath></defs><rect x="-37.5" width="450" fill="#ffffff" y="-37.499999" height="449.999989" fill-opacity="1"/><rect x="-37.5" width="450" fill="#ffffff" y="-37.499999" height="449.999989" fill-opacity="1"/><g transform="matrix(1, 0, 0, 1, 6, 8)"><g clip-path="url(#b74e042cf8)"><g clip-path="url(#496f97e3ab)"><g clip-path="url(#7b97be43b7)"><g clip-path="url(#16b0ee374f)"><g transform="matrix(1, 0, 0, 1, 28, 27)"><g clip-path="url(#616be28766)"><g clip-path="url(#780bcdf2ae)"><g clip-path="url(#d7ec4cdc08)"><g clip-path="url(#8956d43afc)"><path fill="#000000" d="M -11.042969 9.453125 L 299.800781 -9.359375 L 318.253906 295.53125 L 7.40625 314.34375 Z M -11.042969 9.453125 " fill-opacity="1" fill-rule="nonzero"/></g></g></g></g></g></g></g></g><g clip-path="url(#9ecdc36d1d)"><g clip-path="url(#a7cf888294)"><g clip-path="url(#a287a30526)"><g transform="matrix(1, 0, 0, 1, 76, 74)"><g clip-path="url(#7d71da27a7)"><g clip-path="url(#ef5f43a12c)"><g clip-path="url(#9c9a1f7a93)"><g clip-path="url(#d5c710e03d)"><path fill="#8bff00" d="M -7.914062 6.902344 L 206.339844 -6.0625 L 219.058594 204.089844 L 4.800781 217.054688 Z M -7.914062 6.902344 " fill-opacity="1" fill-rule="nonzero"/></g></g></g></g></g></g></g></g></g></g></svg>